<svg width="26" height="24" viewBox="0 0 26 24" fill="none" xmlns="http://www.w3.org/2000/svg">
<path d="M20.7514 12C20.7514 17.0448 15.0146 20.4387 13.4084 21.2902C13.1461 21.4292 12.8436 21.4292 12.5814 21.2902C10.9751 20.4388 5.23828 17.0448 5.23828 12C5.23828 7.5 8.99661 4.5 12.9949 4.5C17.1317 4.5 20.7514 7.5 20.7514 12Z" stroke="#222222" stroke-width="1.5"/>
<path d="M16.3816 12C16.3816 13.7713 14.8892 15.25 12.9948 15.25C11.1003 15.25 9.60791 13.7713 9.60791 12C9.60791 10.2287 11.1003 8.75 12.9948 8.75C14.8892 8.75 16.3816 10.2287 16.3816 12Z" stroke="#222222" stroke-width="1.5"/>
</svg>
