<svg width="71" height="50" viewBox="0 0 71 50" fill="none" xmlns="http://www.w3.org/2000/svg">
<path d="M25.2029 5.5V27.1H4.80293V5.5H25.2029ZM19.5629 10.03H10.4429V22.6H19.5629V10.03Z" fill="#F58634"/>
<path d="M25.2029 5.5H25.7029V5H25.2029V5.5ZM25.2029 27.1V27.6H25.7029V27.1H25.2029ZM4.80293 27.1H4.30293V27.6H4.80293V27.1ZM4.80293 5.5V5H4.30293V5.5H4.80293ZM19.5629 10.03H20.0629V9.53H19.5629V10.03ZM10.4429 10.03V9.53H9.94293V10.03H10.4429ZM10.4429 22.6H9.94293V23.1H10.4429V22.6ZM19.5629 22.6V23.1H20.0629V22.6H19.5629ZM24.7029 5.5V27.1H25.7029V5.5H24.7029ZM25.2029 26.6H4.80293V27.6H25.2029V26.6ZM5.30293 27.1V5.5H4.30293V27.1H5.30293ZM4.80293 6H25.2029V5H4.80293V6ZM19.5629 9.53H10.4429V10.53H19.5629V9.53ZM9.94293 10.03V22.6H10.9429V10.03H9.94293ZM10.4429 23.1H19.5629V22.1H10.4429V23.1ZM20.0629 22.6V10.03H19.0629V22.6H20.0629Z" fill="#F58634"/>
<path d="M31.8753 24C31.9953 26.88 32.3153 29.21 32.8353 30.99C33.3553 32.75 34.1453 34.11 35.2053 35.07C36.2653 36.01 37.6953 36.62 39.4953 36.9L38.2953 41.1C35.9953 40.76 34.0953 40.15 32.5953 39.27C31.1153 38.39 29.9153 37.11 28.9953 35.43C28.0753 37.11 26.8653 38.39 25.3653 39.27C23.8853 40.15 21.9953 40.76 19.6953 41.1L18.4953 36.9C20.2953 36.62 21.7253 36.01 22.7853 35.07C23.8453 34.11 24.6353 32.75 25.1553 30.99C25.6753 29.21 25.9953 26.88 26.1153 24H19.0953V19.5H38.8953V24H31.8753Z" fill="#FFCC29"/>
<path d="M31.8753 24V23.5H31.354L31.3757 24.0208L31.8753 24ZM32.8353 30.99L32.3554 31.1302L32.3558 31.1317L32.8353 30.99ZM35.2053 35.07L34.8697 35.4406L34.8736 35.4441L35.2053 35.07ZM39.4953 36.9L39.9761 37.0374L40.1316 36.493L39.5722 36.4059L39.4953 36.9ZM38.2953 41.1L38.2222 41.5946L38.6557 41.6587L38.7761 41.2374L38.2953 41.1ZM32.5953 39.27L32.3398 39.6998L32.3423 39.7013L32.5953 39.27ZM28.9953 35.43L29.4339 35.1898L28.9953 34.389L28.5568 35.1898L28.9953 35.43ZM25.3653 39.27L25.1123 38.8387L25.1098 38.8402L25.3653 39.27ZM19.6953 41.1L19.2146 41.2374L19.3349 41.6587L19.7684 41.5946L19.6953 41.1ZM18.4953 36.9L18.4185 36.4059L17.859 36.493L18.0146 37.0374L18.4953 36.9ZM22.7853 35.07L23.1171 35.4441L23.121 35.4406L22.7853 35.07ZM25.1553 30.99L25.6348 31.1317L25.6353 31.1302L25.1553 30.99ZM26.1153 24L26.6149 24.0208L26.6366 23.5H26.1153V24ZM19.0953 24H18.5953V24.5H19.0953V24ZM19.0953 19.5V19H18.5953V19.5H19.0953ZM38.8953 19.5H39.3953V19H38.8953V19.5ZM38.8953 24V24.5H39.3953V24H38.8953ZM31.3757 24.0208C31.4966 26.9216 31.8196 29.2962 32.3554 31.1302L33.3153 30.8498C32.811 29.1238 32.494 26.8384 32.3749 23.9792L31.3757 24.0208ZM32.3558 31.1317C32.8946 32.9552 33.7248 34.4038 34.8697 35.4406L35.541 34.6994C34.5658 33.8162 33.8161 32.5448 33.3148 30.8483L32.3558 31.1317ZM34.8736 35.4441C36.0232 36.4635 37.5505 37.1035 39.4185 37.3941L39.5722 36.4059C37.8401 36.1365 36.5075 35.5565 35.5371 34.6959L34.8736 35.4441ZM39.0146 36.7626L37.8146 40.9626L38.7761 41.2374L39.9761 37.0374L39.0146 36.7626ZM38.3684 40.6054C36.1117 40.2718 34.2778 39.6773 32.8483 38.8387L32.3423 39.7013C33.9129 40.6227 35.8789 41.2482 38.2222 41.5946L38.3684 40.6054ZM32.8509 38.8402C31.4561 38.0109 30.3159 36.8005 29.4339 35.1898L28.5568 35.6702C29.5148 37.4195 30.7745 38.7691 32.3398 39.6998L32.8509 38.8402ZM28.5568 35.1898C27.6757 36.7988 26.5266 38.009 25.1123 38.8387L25.6183 39.7013C27.2041 38.771 28.475 37.4212 29.4339 35.6702L28.5568 35.1898ZM25.1098 38.8402C23.7017 39.6775 21.879 40.2718 19.6222 40.6054L19.7684 41.5946C22.1116 41.2482 24.069 40.6225 25.6209 39.6998L25.1098 38.8402ZM20.1761 40.9626L18.9761 36.7626L18.0146 37.0374L19.2146 41.2374L20.1761 40.9626ZM18.5722 37.3941C20.4401 37.1035 21.9675 36.4635 23.1171 35.4441L22.4536 34.6959C21.4832 35.5565 20.1505 36.1365 18.4185 36.4059L18.5722 37.3941ZM23.121 35.4406C24.2658 34.4038 25.0961 32.9552 25.6348 31.1317L24.6758 30.8483C24.1746 32.5448 23.4248 33.8162 22.4497 34.6994L23.121 35.4406ZM25.6353 31.1302C26.171 29.2962 26.494 26.9216 26.6149 24.0208L25.6157 23.9792C25.4966 26.8384 25.1796 29.1238 24.6754 30.8498L25.6353 31.1302ZM26.1153 23.5H19.0953V24.5H26.1153V23.5ZM19.5953 24V19.5H18.5953V24H19.5953ZM19.0953 20H38.8953V19H19.0953V20ZM38.3953 19.5V24H39.3953V19.5H38.3953ZM38.8953 23.5H31.8753V24.5H38.8953V23.5Z" fill="#FFCC29"/>
<path d="M46.0029 11.2C48.1229 11.2 49.9429 11.61 51.4629 12.43C53.0029 13.23 54.1729 14.39 54.9729 15.91C55.7929 17.43 56.2029 19.24 56.2029 21.34V23.26C56.2029 25.36 55.7929 27.17 54.9729 28.69C54.1729 30.21 53.0029 31.38 51.4629 32.2C49.9429 33 48.1229 33.4 46.0029 33.4C43.8829 33.4 42.0529 33 40.5129 32.2C38.9929 31.38 37.8229 30.21 37.0029 28.69C36.2029 27.17 35.8029 25.36 35.8029 23.26V21.31C35.8029 18.13 36.7029 15.65 38.5029 13.87C40.3029 12.09 42.8029 11.2 46.0029 11.2ZM46.0029 15.7C44.5829 15.7 43.4729 16.09 42.6729 16.87C41.8929 17.65 41.5029 18.74 41.5029 20.14V24.46C41.5029 25.86 41.8929 26.95 42.6729 27.73C43.4729 28.51 44.5829 28.9 46.0029 28.9C47.4229 28.9 48.5229 28.51 49.3029 27.73C50.1029 26.95 50.5029 25.86 50.5029 24.46V20.14C50.5029 18.74 50.1029 17.65 49.3029 16.87C48.5229 16.09 47.4229 15.7 46.0029 15.7Z" fill="#FF5A5A"/>
<path d="M51.4629 12.43L51.2255 12.8701L51.2324 12.8737L51.4629 12.43ZM54.9729 15.91L54.5304 16.1429L54.5329 16.1474L54.9729 15.91ZM54.9729 28.69L54.5329 28.4526L54.5305 28.4571L54.9729 28.69ZM51.4629 32.2L51.6958 32.6425L51.6979 32.6413L51.4629 32.2ZM40.5129 32.2L40.2755 32.6401L40.2824 32.6437L40.5129 32.2ZM37.0029 28.69L36.5604 28.9229L36.5629 28.9274L37.0029 28.69ZM38.5029 13.87L38.8545 14.2255H38.8545L38.5029 13.87ZM42.6729 16.87L42.3239 16.512L42.3194 16.5164L42.6729 16.87ZM42.6729 27.73L42.3193 28.0836L42.3239 28.088L42.6729 27.73ZM49.3029 27.73L48.9539 27.372L48.9494 27.3764L49.3029 27.73ZM49.3029 16.87L48.9494 17.2236L48.9539 17.228L49.3029 16.87ZM46.0029 11.7C48.0587 11.7 49.7933 12.0974 51.2255 12.87L51.7003 11.9899C50.0926 11.1226 48.1872 10.7 46.0029 10.7V11.7ZM51.2324 12.8737C52.6829 13.6272 53.7785 14.7141 54.5305 16.1429L55.4154 15.6771C54.5674 14.0659 53.3229 12.8328 51.6934 11.9863L51.2324 12.8737ZM54.5329 16.1474C55.3059 17.5803 55.7029 19.3051 55.7029 21.34H56.7029C56.7029 19.1749 56.28 17.2797 55.413 15.6726L54.5329 16.1474ZM55.7029 21.34V23.26H56.7029V21.34H55.7029ZM55.7029 23.26C55.7029 25.2949 55.3059 27.0197 54.5329 28.4526L55.413 28.9274C56.28 27.3203 56.7029 25.4251 56.7029 23.26H55.7029ZM54.5305 28.4571C53.7779 29.8869 52.6809 30.985 51.2279 31.7587L51.6979 32.6413C53.3249 31.775 54.5679 30.5331 55.4154 28.9229L54.5305 28.4571ZM51.2301 31.7575C49.7968 32.5119 48.0605 32.9 46.0029 32.9V33.9C48.1854 33.9 50.0891 33.4881 51.6958 32.6425L51.2301 31.7575ZM46.0029 32.9C43.9456 32.9 42.1981 32.512 40.7434 31.7563L40.2824 32.6437C41.9077 33.488 43.8202 33.9 46.0029 33.9V32.9ZM40.7503 31.76C39.3162 30.9863 38.2167 29.8867 37.443 28.4526L36.5629 28.9274C37.4292 30.5333 38.6697 31.7737 40.2755 32.64L40.7503 31.76ZM37.4454 28.4571C36.6907 27.0232 36.3029 25.2967 36.3029 23.26H35.3029C35.3029 25.4233 35.7152 27.3168 36.5605 28.9229L37.4454 28.4571ZM36.3029 23.26V21.31H35.3029V23.26H36.3029ZM36.3029 21.31C36.3029 18.2274 37.1724 15.8889 38.8545 14.2255L38.1514 13.5145C36.2334 15.4111 35.3029 18.0326 35.3029 21.31H36.3029ZM38.8545 14.2255C40.5378 12.5609 42.8981 11.7 46.0029 11.7V10.7C42.7078 10.7 40.0681 11.6191 38.1514 13.5145L38.8545 14.2255ZM46.0029 15.2C44.4895 15.2 43.2407 15.6181 42.3239 16.512L43.022 17.228C43.7051 16.5619 44.6764 16.2 46.0029 16.2V15.2ZM42.3194 16.5164C41.4221 17.4138 41.0029 18.6449 41.0029 20.14H42.0029C42.0029 18.8351 42.3638 17.8862 43.0265 17.2236L42.3194 16.5164ZM41.0029 20.14V24.46H42.0029V20.14H41.0029ZM41.0029 24.46C41.0029 25.9551 41.4221 27.1862 42.3194 28.0836L43.0265 27.3764C42.3638 26.7138 42.0029 25.7649 42.0029 24.46H41.0029ZM42.3239 28.088C43.2407 28.9819 44.4895 29.4 46.0029 29.4V28.4C44.6764 28.4 43.7051 28.0381 43.022 27.372L42.3239 28.088ZM46.0029 29.4C47.5157 29.4 48.7579 28.9822 49.6565 28.0836L48.9494 27.3764C48.288 28.0378 47.3302 28.4 46.0029 28.4V29.4ZM49.652 28.088C50.5716 27.1913 51.0029 25.9587 51.0029 24.46H50.0029C50.0029 25.7613 49.6342 26.7087 48.9539 27.372L49.652 28.088ZM51.0029 24.46V20.14H50.0029V24.46H51.0029ZM51.0029 20.14C51.0029 18.6413 50.5716 17.4087 49.652 16.512L48.9539 17.228C49.6342 17.8913 50.0029 18.8387 50.0029 20.14H51.0029ZM49.6565 16.5164C48.7579 15.6178 47.5157 15.2 46.0029 15.2V16.2C47.3302 16.2 48.288 16.5622 48.9494 17.2236L49.6565 16.5164Z" fill="#FF5A5A"/>
</svg>
