<svg width="100" height="100" viewBox="0 0 100 100" fill="none" xmlns="http://www.w3.org/2000/svg">
<mask id="mask0_1210_6151" style="mask-type:alpha" maskUnits="userSpaceOnUse" x="0" y="0" width="100" height="100">
<rect width="100" height="100" fill="#D9D9D9"/>
</mask>
<g mask="url(#mask0_1210_6151)">
<path d="M61.5154 91.477L36.4769 82.6055L18.0552 89.9621C16.6587 90.6712 15.3005 90.6156 13.9803 89.7954C12.6601 88.9753 12 87.7533 12 86.1296V27.9201C12 26.883 12.2978 25.9585 12.8933 25.1466C13.4889 24.3347 14.2698 23.7383 15.2359 23.3573L34.1196 16.7059C34.897 16.4473 35.6828 16.3264 36.4769 16.3431C37.271 16.3597 38.0567 16.4806 38.8342 16.7059L63.8727 25.498L82.1902 18.1414C83.5867 17.5019 84.9491 17.5748 86.2776 18.3603C87.6061 19.1456 88.2704 20.3502 88.2704 21.974V80.9137C88.2704 81.8283 87.9685 82.6179 87.3646 83.2824C86.7607 83.9469 86.0104 84.4348 85.1137 84.7462L66.23 91.5019C65.4526 91.7605 64.6668 91.8815 63.8727 91.8648C63.0786 91.8481 62.2929 91.7189 61.5154 91.477ZM60.331 83.5602V31.4034L39.9144 24.5184V76.6752L60.331 83.5602ZM66.5811 83.5602L81.1486 78.757V25.8451L66.5811 31.4034V83.5602ZM19.0969 82.2335L33.6644 76.6752V24.5184L19.0969 29.3465V82.2335Z" fill="#1C1B1F" fill-opacity="0.2"/>
</g>
</svg>
