<svg width="40" height="40" viewBox="0 0 40 40" fill="none" xmlns="http://www.w3.org/2000/svg">
<mask id="mask0_1336_20596" style="mask-type:alpha" maskUnits="userSpaceOnUse" x="0" y="0" width="40" height="40">
<rect width="40" height="40" fill="#D9D9D9"/>
</mask>
<g mask="url(#mask0_1336_20596)">
<path d="M10.4789 29.1201C11.9106 28.1148 13.3966 27.3242 14.9366 26.7483C16.4767 26.1725 18.1645 25.8846 19.9999 25.8846C21.8354 25.8846 23.5232 26.1725 25.0632 26.7483C26.6033 27.3242 28.0956 28.1148 29.54 29.1201C30.6607 27.9609 31.5517 26.6114 32.2131 25.0716C32.8744 23.5318 33.2051 21.8421 33.2051 20.0025C33.2051 16.3373 31.9201 13.2197 29.3501 10.6498C26.7801 8.07979 23.6634 6.79481 19.9999 6.79481C16.3365 6.79481 13.2197 8.07979 10.6498 10.6498C8.07979 13.2197 6.79481 16.3373 6.79481 20.0025C6.79481 21.8421 7.12547 23.5318 7.78681 25.0716C8.44811 26.6114 9.34547 27.9609 10.4789 29.1201ZM20.0055 20.782C18.6043 20.782 17.4283 20.3084 16.4775 19.3613C15.5266 18.4141 15.0512 17.24 15.0512 15.8388C15.0512 14.4377 15.5248 13.2617 16.4719 12.3108C17.4191 11.36 18.5932 10.8846 19.9943 10.8846C21.3955 10.8846 22.5715 11.3581 23.5224 12.3053C24.4732 13.2524 24.9486 14.4265 24.9486 15.8277C24.9486 17.2288 24.4751 18.4049 23.5279 19.3557C22.5808 20.3066 21.4067 20.782 20.0055 20.782ZM19.9999 34.7435C17.9555 34.7435 16.0331 34.359 14.2328 33.5899C12.4324 32.8209 10.8706 31.7733 9.54735 30.4473C8.22407 29.1213 7.17808 27.5591 6.40939 25.7607C5.64069 23.9624 5.25635 22.0394 5.25635 19.9919C5.25635 17.9422 5.64088 16.0198 6.40993 14.2248C7.17899 12.4298 8.22653 10.8706 9.55256 9.54735C10.8786 8.22407 12.4408 7.17809 14.2391 6.40939C16.0375 5.6407 17.9604 5.25635 20.0079 5.25635C22.0577 5.25635 23.9801 5.64088 25.7751 6.40993C27.5701 7.17899 29.1292 8.22653 30.4525 9.55256C31.7758 10.8786 32.8218 12.4376 33.5905 14.2297C34.3592 16.0218 34.7435 17.9452 34.7435 19.9999C34.7435 22.0443 34.359 23.9667 33.5899 25.7671C32.8209 27.5674 31.7733 29.1292 30.4473 30.4525C29.1213 31.7758 27.5622 32.8218 25.7701 33.5905C23.978 34.3592 22.0546 34.7435 19.9999 34.7435ZM19.999 33.2051C21.5188 33.2051 23.0103 32.9406 24.4735 32.4118C25.9366 31.8829 27.2253 31.1516 28.3397 30.2179C27.2253 29.3621 25.969 28.6824 24.5706 28.1786C23.1722 27.6749 21.6498 27.423 20.0034 27.423C18.357 27.423 16.8219 27.6634 15.3983 28.1442C13.9746 28.6249 12.7286 29.3162 11.6602 30.2179C12.7745 31.1516 14.0629 31.8829 15.5254 32.4118C16.9879 32.9406 18.4791 33.2051 19.999 33.2051ZM19.9999 19.2435C20.9497 19.2435 21.7555 18.9126 22.4174 18.2507C23.0793 17.5889 23.4102 16.783 23.4102 15.8333C23.4102 14.8835 23.0793 14.0777 22.4174 13.4158C21.7555 12.7539 20.9497 12.423 19.9999 12.423C19.0502 12.423 18.2443 12.7539 17.5825 13.4158C16.9206 14.0777 16.5897 14.8835 16.5897 15.8333C16.5897 16.783 16.9206 17.5889 17.5825 18.2507C18.2443 18.9126 19.0502 19.2435 19.9999 19.2435Z" fill="#1C1B1F"/>
</g>
</svg>
