<svg width="15" height="4" viewBox="0 0 15 4" fill="none" xmlns="http://www.w3.org/2000/svg">
<path d="M1.94133 3.86313C1.4515 3.86313 1.03219 3.7055 0.683375 3.39025C0.334563 3.075 0.160156 2.69603 0.160156 2.25334C0.160156 1.81065 0.334563 1.43168 0.683375 1.11643C1.03219 0.80118 1.4515 0.643555 1.94133 0.643555C2.43115 0.643555 2.85047 0.80118 3.19928 1.11643C3.54809 1.43168 3.7225 1.81065 3.7225 2.25334C3.7225 2.69603 3.54809 3.075 3.19928 3.39025C2.85047 3.7055 2.43115 3.86313 1.94133 3.86313ZM7.28484 3.86313C6.79502 3.86313 6.3757 3.7055 6.02689 3.39025C5.67807 3.075 5.50367 2.69603 5.50367 2.25334C5.50367 1.81065 5.67807 1.43168 6.02689 1.11643C6.3757 0.80118 6.79502 0.643555 7.28484 0.643555C7.77466 0.643555 8.19398 0.80118 8.54279 1.11643C8.8916 1.43168 9.06601 1.81065 9.06601 2.25334C9.06601 2.69603 8.8916 3.075 8.54279 3.39025C8.19398 3.7055 7.77466 3.86313 7.28484 3.86313ZM12.6283 3.86313C12.1385 3.86313 11.7192 3.7055 11.3704 3.39025C11.0216 3.075 10.8472 2.69603 10.8472 2.25334C10.8472 1.81065 11.0216 1.43168 11.3704 1.11643C11.7192 0.80118 12.1385 0.643555 12.6283 0.643555C13.1182 0.643555 13.5375 0.80118 13.8863 1.11643C14.2351 1.43168 14.4095 1.81065 14.4095 2.25334C14.4095 2.69603 14.2351 3.075 13.8863 3.39025C13.5375 3.7055 13.1182 3.86313 12.6283 3.86313Z" fill="#1C1B1F"/>
</svg>
