<svg width="24" height="24" viewBox="0 0 24 24" fill="none" xmlns="http://www.w3.org/2000/svg">
<path d="M9.68545 5.28429C10.6998 2.83305 11.2069 1.60742 12.079 1.60742C12.9511 1.60742 13.4583 2.83305 14.4726 5.2843L14.5198 5.39844C15.0928 6.78327 15.3794 7.47569 15.9633 7.89655C16.5472 8.31741 17.3138 8.38396 18.8468 8.51706L19.124 8.54112C21.6331 8.75895 22.8876 8.86786 23.1561 9.64159C23.4245 10.4153 22.4928 11.237 20.6295 12.8804L20.0076 13.4288C19.0643 14.2607 18.5927 14.6767 18.3729 15.2218C18.3319 15.3235 18.2978 15.4277 18.2708 15.5337C18.1263 16.1021 18.2645 16.7055 18.5407 17.9123L18.6266 18.288C19.1343 20.5059 19.3881 21.6148 18.9449 22.0932C18.7793 22.2719 18.5641 22.4006 18.325 22.4638C17.6852 22.6331 16.7768 21.9155 14.96 20.4804C13.767 19.5381 13.1705 19.0669 12.4856 18.9609C12.2163 18.9192 11.9418 18.9192 11.6724 18.9609C10.9875 19.0669 10.391 19.5381 9.19806 20.4804C7.38125 21.9155 6.47285 22.6331 5.83301 22.4638C5.59392 22.4006 5.37869 22.2719 5.21309 22.0932C4.76993 21.6148 5.02374 20.5059 5.53137 18.288L5.61735 17.9123C5.89357 16.7055 6.03168 16.1021 5.88719 15.5337C5.86023 15.4277 5.82614 15.3235 5.78514 15.2218C5.56532 14.6767 5.09369 14.2607 4.15043 13.4288L3.52854 12.8804C1.66519 11.237 0.733518 10.4153 1.00196 9.64159C1.2704 8.86786 2.52494 8.75895 5.03402 8.54112L5.31117 8.51706C6.84425 8.38396 7.61079 8.31741 8.19473 7.89655C8.77866 7.47569 9.06518 6.78327 9.63821 5.39844L9.68545 5.28429Z" stroke="black" stroke-width="1.5"/>
</svg>
