<svg width="31" height="31" viewBox="0 0 31 31" fill="none" xmlns="http://www.w3.org/2000/svg">
<path d="M3.44565 27.4477H5.64252L22.0937 10.9965L19.8968 8.79959L3.44565 25.2508V27.4477ZM27.7925 9.06956L21.7964 3.12813L24.13 0.794588C24.6402 0.284393 25.2689 0.0292969 26.0159 0.0292969C26.763 0.0292969 27.3917 0.284393 27.9019 0.794588L30.0987 2.99146C30.609 3.50165 30.8732 4.12119 30.8914 4.85006C30.9096 5.57893 30.6636 6.19846 30.1534 6.70866L27.7925 9.06956ZM2.38654 30.1126C1.92873 30.1126 1.54665 29.9594 1.24029 29.653C0.933938 29.3467 0.780762 28.9646 0.780762 28.5068V24.7862C0.780762 24.572 0.819477 24.3682 0.89691 24.1746C0.974342 23.981 1.09621 23.801 1.2625 23.6348L19.8695 5.02772L25.8656 11.0238L7.25856 29.6308C7.0923 29.7971 6.91237 29.919 6.71877 29.9964C6.52514 30.0739 6.32127 30.1126 6.10716 30.1126H2.38654Z" fill="#1C1B1F"/>
</svg>
